<?xml version="1.0" encoding="utf-8"?>
<!-- Generator: Adobe Illustrator 26.5.0, SVG Export Plug-In . SVG Version: 6.00 Build 0)  -->
<svg version="1.0" id="katman_1" xmlns="http://www.w3.org/2000/svg" xmlns:xlink="http://www.w3.org/1999/xlink" x="0px" y="0px"
	 viewBox="0 0 1190.55 841.89" style="enable-background:new 0 0 1190.55 841.89;" xml:space="preserve">
<style type="text/css">
	.st0{fill:url(#SVGID_1_);}
	.st1{fill:url(#SVGID_00000039816898842550815800000011450050600560922538_);}
	.st2{fill:url(#SVGID_00000044873063691895037650000006132050680693011873_);}
	.st3{fill:url(#SVGID_00000164504362244778584960000008116631108627294114_);}
	.st4{fill:url(#SVGID_00000181808336077640008740000009047236744027008678_);}
</style>
<g id="Page-1">
	<g id="chip-kidney-copy">
		<g id="Mask">
		</g>
		<g id="path-1">
		</g>
	</g>
</g>
<g>
	<linearGradient id="SVGID_1_" gradientUnits="userSpaceOnUse" x1="498.648" y1="716.4404" x2="510.7502" y2="729.6917">
		<stop  offset="0" style="stop-color:#06A9DB"/>
		<stop  offset="0.4413" style="stop-color:#6778B9"/>
		<stop  offset="0.795" style="stop-color:#CD4894"/>
		<stop  offset="1" style="stop-color:#D64592"/>
	</linearGradient>
	<rect x="497.95" y="710.02" class="st0" width="16.17" height="29.03"/>
	
		<linearGradient id="SVGID_00000152958499096057242400000014738386596021973125_" gradientUnits="userSpaceOnUse" x1="484.5925" y1="615.9841" x2="519.707" y2="654.4325">
		<stop  offset="0" style="stop-color:#06A9DB"/>
		<stop  offset="0.4413" style="stop-color:#6778B9"/>
		<stop  offset="0.795" style="stop-color:#CD4894"/>
		<stop  offset="1" style="stop-color:#D64592"/>
	</linearGradient>
	
		<rect x="497.95" y="583.31" style="fill:url(#SVGID_00000152958499096057242400000014738386596021973125_);" width="16.17" height="112.32"/>
	
		<linearGradient id="SVGID_00000063626052998309730190000003661244625890552752_" gradientUnits="userSpaceOnUse" x1="335.1869" y1="253.8656" x2="560.9541" y2="501.0682">
		<stop  offset="0" style="stop-color:#06A9DB"/>
		<stop  offset="0.4413" style="stop-color:#6778B9"/>
		<stop  offset="0.795" style="stop-color:#CD4894"/>
		<stop  offset="1" style="stop-color:#D64592"/>
	</linearGradient>
	<path style="fill:url(#SVGID_00000063626052998309730190000003661244625890552752_);" d="M519.4,204.85
		c0-56.74-46.53-102.9-103.73-102.9h-3.29v0.06C314.95,103.32,236,205.25,236,330.42c0,125.98,79.97,228.47,178.27,228.47h2.53
		c47.73,0,87.43-37.73,88.5-84.1c0.38-15.6-3.65-30.67-11.09-43.92h4.79c21.72,0,39.38,17.52,39.38,39.07v269.05h16.18V443.78
		c0-38.43-19.68-73.43-52.64-93.63L485.32,340c-0.07-1.8-0.09-3.6-0.22-5.39h69.46v-16.04h-71.27c-0.91-5.43-2.16-10.76-3.59-16.04
		h74.87v-16.05h-75.92C504.29,267.08,519.4,237.35,519.4,204.85z M416.8,542.85h-2.53c-89.38,0-162.1-95.3-162.1-212.43
		c0-117.13,72.72-212.43,162.1-212.43h1.41c48.28,0,87.55,38.96,87.55,86.86c0,27.43-12.75,52.51-34.38,68.88
		c-5.12-10.53-11.27-20.64-18.65-30.1l-12.79,9.83c20.94,26.8,32.01,58.95,32.01,92.97c0,34.04-11.07,66.21-32.01,93l12.79,9.83
		c6.68-8.55,12.34-17.64,17.17-27.09c14.21,13.54,22.25,32.41,21.77,52.23C488.27,512.15,455.81,542.85,416.8,542.85z
		 M485.09,358.71l8.34,5.11c24.19,14.82,39.92,38.99,43.9,66.32c-9.98-9.45-23.46-15.3-38.32-15.3h-16.4
		c-2.59-2.83-5.4-5.47-8.39-7.96C480.18,391.54,483.89,375.4,485.09,358.71z"/>
	
		<linearGradient id="SVGID_00000134965038971101810440000012878993446575169432_" gradientUnits="userSpaceOnUse" x1="733.6144" y1="163.5338" x2="745.2946" y2="176.323">
		<stop  offset="0" style="stop-color:#06A9DB"/>
		<stop  offset="0.4413" style="stop-color:#6778B9"/>
		<stop  offset="0.795" style="stop-color:#CD4894"/>
		<stop  offset="1" style="stop-color:#D64592"/>
	</linearGradient>
	<path style="fill:url(#SVGID_00000134965038971101810440000012878993446575169432_);" d="M711.03,204.85h16.18
		c0-25.77,21.14-46.74,47.12-46.74v-16.04C739.42,142.06,711.03,170.23,711.03,204.85z"/>
	
		<linearGradient id="SVGID_00000027590159844292866550000000717570562831077053_" gradientUnits="userSpaceOnUse" x1="622.8862" y1="293.8081" x2="778.028" y2="463.6798">
		<stop  offset="0" style="stop-color:#06A9DB"/>
		<stop  offset="0.4413" style="stop-color:#6778B9"/>
		<stop  offset="0.795" style="stop-color:#CD4894"/>
		<stop  offset="1" style="stop-color:#D64592"/>
	</linearGradient>
	<path style="fill:url(#SVGID_00000027590159844292866550000000717570562831077053_);" d="M777.62,102.01v-0.06h-3.29
		c-57.19,0-103.73,46.16-103.73,102.9c0,32.5,15.11,62.23,40.76,81.62h-75.92v16.05h74.86c-1.43,5.28-2.69,10.62-3.59,16.04h-71.27
		v16.04h69.46c-0.12,1.79-0.15,3.59-0.22,5.39l-16.59,10.16c-32.96,20.19-52.64,55.2-52.64,93.63v294.84h16.17V469.95
		c0-21.54,17.67-39.07,39.38-39.07h4.79c-7.44,13.24-11.47,28.32-11.09,43.91c1.07,46.38,40.78,84.1,88.51,84.1h2.53
		c98.3,0,178.27-102.49,178.27-228.47C954,205.25,875.04,103.32,777.62,102.01z M690.99,414.83c-14.86,0-28.34,5.85-38.31,15.3
		c3.98-27.33,19.71-51.5,43.9-66.32l8.33-5.11c1.2,16.68,4.91,32.83,10.87,48.16c-2.99,2.49-5.79,5.14-8.39,7.96H690.99z
		 M775.73,542.85h-2.53c-39.01,0-71.47-30.69-72.34-68.44c-0.48-19.81,7.56-38.69,21.77-52.22c4.83,9.44,10.49,18.54,17.17,27.09
		l12.79-9.83c-20.94-26.8-32.01-58.96-32.01-93c0-34.03,11.07-66.18,32.01-92.97l-12.79-9.83c-7.39,9.45-13.53,19.57-18.65,30.1
		c-21.64-16.37-34.38-41.45-34.38-68.88c0-47.89,39.27-86.86,87.55-86.86h1.4c89.38,0,162.1,95.29,162.1,212.43
		C937.82,447.55,865.11,542.85,775.73,542.85z"/>
</g>
</svg>
